<svg width="54" height="54" viewBox="0 0 54 54" fill="none" xmlns="http://www.w3.org/2000/svg">
<rect width="54" height="54" rx="27" fill="#EA5321"/>
<path d="M15.3333 18.6667C15.3333 17.7448 16.078 17 16.9999 17H36.9999C37.9218 17 38.6666 17.7448 38.6666 18.6667C38.6666 19.5885 37.9218 20.3333 36.9999 20.3333H16.9999C16.078 20.3333 15.3333 19.5885 15.3333 18.6667ZM15.3333 27C15.3333 26.0781 16.078 25.3333 16.9999 25.3333H36.9999C37.9218 25.3333 38.6666 26.0781 38.6666 27C38.6666 27.9219 37.9218 28.6667 36.9999 28.6667H16.9999C16.078 28.6667 15.3333 27.9219 15.3333 27ZM38.6666 35.3333C38.6666 36.2552 37.9218 37 36.9999 37H16.9999C16.078 37 15.3333 36.2552 15.3333 35.3333C15.3333 34.4115 16.078 33.6667 16.9999 33.6667H36.9999C37.9218 33.6667 38.6666 34.4115 38.6666 35.3333Z" fill="white"/>
<path d="M15.3333 18.6667C15.3333 17.7448 16.078 17 16.9999 17H36.9999C37.9218 17 38.6666 17.7448 38.6666 18.6667C38.6666 19.5885 37.9218 20.3333 36.9999 20.3333H16.9999C16.078 20.3333 15.3333 19.5885 15.3333 18.6667ZM15.3333 27C15.3333 26.0781 16.078 25.3333 16.9999 25.3333H36.9999C37.9218 25.3333 38.6666 26.0781 38.6666 27C38.6666 27.9219 37.9218 28.6667 36.9999 28.6667H16.9999C16.078 28.6667 15.3333 27.9219 15.3333 27ZM38.6666 35.3333C38.6666 36.2552 37.9218 37 36.9999 37H16.9999C16.078 37 15.3333 36.2552 15.3333 35.3333C15.3333 34.4115 16.078 33.6667 16.9999 33.6667H36.9999C37.9218 33.6667 38.6666 34.4115 38.6666 35.3333Z" fill="#EA5321" fill-opacity="0.08"/>
</svg>
