<svg width="1044" height="396" viewBox="0 0 1044 396" fill="none" xmlns="http://www.w3.org/2000/svg">
<g clip-path="url(#clip0_21_7)">
<path d="M404.396 248.899C402.409 231.085 401.325 217.969 400.241 200.011C398.687 187.69 400.964 167.131 391.136 156.869C395.038 144.801 404.577 143.717 393.918 128.866C383.873 115.425 363.205 128.65 367.288 141.693C366.421 148.522 380.26 155.062 373.106 160.988C362.41 172.153 369.059 170.383 365.193 228.231C364.542 238.276 358.689 252.512 369.818 265.953C383.042 281.96 405.986 265.448 404.396 248.899Z" fill="#B3A02B"/>
<path d="M240.39 55.9868C257.337 40.3414 253.651 -2.62029 225.612 0.125791C216.977 0.956841 209.858 11.2908 207.654 18.5896C205.595 24.9128 206.281 31.5612 207.51 39.0768C208.16 43.0152 211.629 48.4712 212.171 49.5552C215.712 56.5288 218.566 56.6011 214.664 61.9126C210.039 68.2358 209.1 70.5483 208.449 82.8695C207.293 110.945 208.341 155.785 209.353 183.824C209.1 205.576 208.413 227.328 210.111 249.08C210.437 265.809 211.448 280.081 211.376 299.087C211.304 323.91 210.4 339.447 211.015 364.27C212.279 379.699 210.003 390.756 224.239 395.128C230.599 397.079 242.053 392.598 243.534 388.046C250.146 367.197 247.509 340.893 246.858 315.419C246.244 290.307 245.63 265.086 246.352 237.842C247.075 210.743 245.305 189.063 245.738 166.806C247.364 145.415 245.015 123.988 245.991 102.598C246.641 90.9993 247.509 78.5697 243.642 67.5131C242.558 63.6469 236.308 59.4917 240.39 55.9146" fill="#F5A1A5"/>
<path d="M312.077 316.937C312.836 307.361 315.112 239.179 314.643 223.317C314.209 204.42 313.306 187.148 313.992 168.215C313.342 154.773 311.355 132.769 313.631 119.544C316.413 110.005 319.81 106.536 323.206 103.14C326.133 100.249 316.088 95.1546 312.041 84.7484C309.404 74.6674 315.112 56.4927 327.831 53.8189C330.216 53.313 332.709 53.6382 334.985 54.5776C342.754 57.7935 347.668 61.9848 349.764 68.7778C351.751 75.3178 350.45 84.6761 346.837 90.638C345.5 92.4446 337.189 101.803 339.141 103.14C347.234 108.74 349.691 116.437 351.064 125.325C355.545 154.412 349.402 150.51 351.715 193.905C352.437 207.274 350.414 248.971 350.703 262.34C350.27 281.816 356.448 307.289 351.209 326.439C349.98 334.389 337.226 343.06 329.963 342.049C320.352 340.893 312.366 325.825 312.041 316.937" fill="#F78F25"/>
<path d="M97.305 249.874C97.305 249.874 97.305 249.585 97.3412 249.441C98.4974 220.21 100.738 200.59 99.4007 171.25C98.389 142.705 95.6429 126.771 108.759 102.2C109.518 100.791 109.446 99.093 108.578 97.7561C100.16 84.6761 97.0882 69.2475 105.254 57.7573C112.445 47.6763 127.982 48.5074 133.474 59.5639C139.002 70.6928 135.859 88.6868 129.499 99.7073C128.885 100.755 128.74 101.984 129.102 103.104C139.797 140.356 135.859 121.64 138.424 173.418C139.616 197.121 138.063 236.361 139.4 277.733C140.086 298.979 140.194 312.456 139.219 326.548C138.858 332.004 138.821 335.436 134.919 339.267C131.342 342.807 123.429 345.048 116.961 344.939C114.829 344.939 108.651 343.639 106.483 342.302C99.0755 337.713 98.8949 329.872 98.4252 321.164C97.3773 300.641 94.8119 266.893 97.2689 249.874" fill="#F3C127"/>
<path d="M149.553 265.267C150.348 241.058 157.177 217.5 156.924 193.11C157.683 176.345 153.058 159.326 163.464 144.837C158.008 128.722 147.024 127.855 157.972 107.115C168.342 88.3617 193.056 105.019 189.443 122.904C190.997 132.118 175.713 141.802 184.385 149.354C197.537 163.807 189.371 224.654 195.586 250.2C195.947 263.822 198.657 285.935 184.204 295.51C161.115 301.327 149.083 287.778 149.553 265.267Z" fill="#B3A02B"/>
<path d="M83.2497 266.857C82.7439 240.588 82.5993 218.078 83.0691 191.701C82.7077 182.27 84.695 161.097 81.1179 152.353C77.0349 142.38 72.5906 144.873 73.1326 138.441C73.2048 137.574 75.9509 131.504 78.4079 126.987C84.0085 116.726 79.1667 93.2034 60.8836 93.0589C55.7889 93.0228 49.2128 98.4427 46.6835 102.779C42.3476 110.619 42.3476 122.146 47.912 132.191C48.7431 133.708 56.078 140.031 53.8378 142.235C44.0097 152.822 46.0331 152.497 44.9853 165.758C45.4189 171.539 46.4306 196.579 46.3944 202.36C46.0331 208.683 45.8525 215.007 45.3466 221.294C45.6718 235.241 47.1171 249.26 45.8886 263.244C45.8525 263.244 45.8163 263.244 45.7802 263.244C45.5273 271.626 45.7079 280.009 46.9364 288.32C47.37 292.945 49.8993 296.738 53.7294 299.412C58.2459 301.616 67.6043 304.11 72.157 301.58C74.4695 300.207 77.2878 299.737 78.697 297.353C85.3093 289.151 82.8161 276.938 83.3581 266.893" fill="#F78F25"/>
<path d="M299.431 231.772C299.431 231.772 299.431 231.411 299.431 231.23C298.6 216.343 299.359 212.73 297.841 197.735C297.155 188.738 299.07 150.148 296.396 141.043C294.083 133.13 287.652 133.961 289.748 128.866C294.445 117.485 300.696 110.547 299.178 101.803C298.347 97.0696 297.227 91.4691 292.06 87.2054C280.787 77.8832 268.249 85.182 264.346 98.9846C264.274 99.2014 264.238 99.4182 264.202 99.5989C263.262 104.983 263.84 110.8 265.683 115.895C267.743 121.568 271.754 124.35 273.054 128.324C273.488 129.697 273.777 131.468 272.693 132.407C270.272 134.539 268.429 136.454 266.731 140.862C261.094 155.388 262.323 181.981 262.901 199.325C263.443 216.09 262.395 255.62 263.19 273.686C263.479 280.19 264.997 290.271 267.887 298.654C268.827 301.4 273.127 310.686 279.956 312.095C289.35 314.046 291.012 309.891 295.565 302.773C300.84 294.534 298.889 242.25 299.431 231.664" fill="#F3C127"/>
<path d="M0 215.801C1.01171 199.903 -0.252928 192.713 7.08199 184.908C9.03316 182.848 8.85249 179.56 6.6484 177.826C4.44431 176.092 2.52928 172.478 1.69823 170.238C-8.6357 134.937 44.2986 133.527 32.0135 172.587C25.9432 181.728 26.4852 178.404 31.0379 186.895C34.8318 194.013 35.0125 213.453 35.0486 216.813C35.5545 262.846 -1.73437 265.339 0.0722652 215.801" fill="#F5A1A5"/>
<path d="M442.508 169.39C441.858 168.486 441.858 167.619 442.761 166.571L450.169 158.008C451.072 156.996 452.084 156.852 453.095 157.755C458.732 163.5 463.827 166.571 471.125 166.571C478.424 166.571 483.663 163.356 483.663 156.996C483.663 150.998 479.183 148.794 472.932 146.012L462.056 140.881C452.589 136.545 444.171 129.752 444.171 116.455C444.171 100.232 456.564 91.271 471.776 91.271C482.399 91.271 490.962 95.4985 497.972 103.05C498.875 103.954 498.875 104.965 498.116 105.977L490.818 114.793C490.059 115.805 489.011 116.058 487.999 115.299C482.507 110.421 478.027 108 472.39 108C465.886 108 461.767 111.18 461.767 116.564C461.767 121.948 465.344 123.863 472.246 127.042L481.459 131.27C491.179 135.859 501.405 141.893 501.405 156.96C501.405 174.99 486.699 183.301 471.487 183.301C457.54 183.301 447.712 176.508 442.472 169.354" fill="#F15E2E"/>
<path d="M511.522 150.492C511.522 131.956 525.469 117.648 544.366 117.648C563.264 117.648 577.102 131.956 577.102 150.492C577.102 169.028 563.155 183.337 544.366 183.337C525.577 183.337 511.522 169.028 511.522 150.492ZM544.366 167.113C553.183 167.113 560.084 160.718 560.084 150.492C560.084 140.267 553.183 133.871 544.366 133.871C535.55 133.871 528.504 140.267 528.504 150.492C528.504 160.718 535.405 167.113 544.366 167.113Z" fill="#F15E2E"/>
<path d="M588.376 157.502V121.08C588.376 119.924 589.135 119.165 590.291 119.165H604.094C605.25 119.165 606.009 119.924 606.009 121.08V153.564C606.009 162.38 610.092 167.113 617.643 167.113C625.195 167.113 629.928 162.38 629.928 153.564V121.08C629.928 119.924 630.687 119.165 631.844 119.165H645.538C646.694 119.165 647.597 119.924 647.597 121.08V179.904C647.597 181.061 646.694 181.819 645.538 181.819H632.385C631.229 181.819 630.579 181.313 630.47 179.76L629.965 172.353C626.387 178.748 620.389 183.337 611.031 183.337C597.879 183.337 588.412 173.87 588.412 157.502" fill="#F15E2E"/>
<path d="M662.628 179.904V121.08C662.628 119.924 663.387 119.165 664.543 119.165H677.84C678.997 119.165 679.755 119.671 679.755 121.225L680.261 128.632C683.838 122.237 689.836 117.648 699.195 117.648C712.239 117.648 721.814 127.115 721.814 143.483V179.904C721.814 181.061 720.91 181.819 719.754 181.819H706.06C704.904 181.819 704.145 181.061 704.145 179.904V147.421C704.145 138.605 700.062 133.871 692.51 133.871C684.958 133.871 680.225 138.605 680.225 147.421V179.904C680.225 181.061 679.466 181.819 678.31 181.819H664.507C663.351 181.819 662.592 181.061 662.592 179.904" fill="#F15E2E"/>
<path d="M733.737 150.492C733.737 131.956 745.878 117.648 763.511 117.648C772.219 117.648 778.578 120.827 782.805 126.464V92.3188C782.805 91.1626 783.564 90.4038 784.72 90.4038H798.668C799.824 90.4038 800.583 91.1626 800.583 92.3188V179.904C800.583 181.061 799.679 181.819 798.523 181.819H786.13C784.973 181.819 784.215 181.061 784.215 179.904L783.962 173.003C779.626 179.398 772.833 183.373 763.511 183.373C745.878 183.373 733.737 169.173 733.737 150.528M767.232 167.258C776.554 167.258 783.094 160.609 783.094 150.528C783.094 140.447 776.591 133.763 767.232 133.763C757.874 133.763 751.009 140.556 751.009 150.528C751.009 160.501 757.91 167.258 767.232 167.258Z" fill="#F15E2E"/>
<path d="M821.901 162.814C821.901 153.058 829.236 145.542 839.172 145.542C849.109 145.542 856.371 153.058 856.371 162.814C856.371 172.569 849.036 180.085 839.172 180.085C829.308 180.085 821.901 172.569 821.901 162.814ZM839.172 171.558C843.797 171.558 847.447 168.197 847.447 162.814C847.447 157.43 843.833 154.069 839.172 154.069C834.511 154.069 830.826 157.43 830.826 162.814C830.826 168.197 834.439 171.558 839.172 171.558Z" fill="#F15E2E"/>
<path d="M864.863 178.278V153.528H860.96C860.346 153.528 859.949 153.13 859.949 152.516V147.349C859.949 146.735 860.346 146.337 860.96 146.337H864.863V141.242C864.863 133.582 869.09 130.15 876.136 130.15C878.015 130.15 879.424 130.294 881.195 131.161C881.592 131.378 881.809 131.776 881.809 132.173V138.28C881.809 138.749 881.412 138.822 880.942 138.749C879.858 138.532 878.991 138.424 878.268 138.424C874.98 138.424 874.221 140.086 874.221 142.543V146.373H880.797C881.412 146.373 881.809 146.771 881.809 147.385V152.552C881.809 153.166 881.412 153.564 880.797 153.564H874.221V178.314C874.221 178.929 873.824 179.326 873.209 179.326H865.874C865.26 179.326 864.863 178.929 864.863 178.314" fill="#F15E2E"/>
<path d="M442.039 279.088V193.418C442.039 192.262 442.797 191.503 443.954 191.503H458.407C459.563 191.503 460.322 192.262 460.322 193.418V228.972H493.166V193.418C493.166 192.262 493.925 191.503 495.081 191.503H509.534C510.691 191.503 511.449 192.262 511.449 193.418V279.088C511.449 280.245 510.691 281.003 509.534 281.003H495.081C493.925 281.003 493.166 280.245 493.166 279.088V245.088H460.322V279.088C460.322 280.245 459.563 281.003 458.407 281.003H443.954C442.797 281.003 442.039 280.245 442.039 279.088Z" fill="#F15E2E"/>
<path d="M524.638 249.676C524.638 231.14 536.779 216.832 554.411 216.832C563.878 216.832 570.635 220.662 574.862 227.202L575.115 220.301C575.115 219.144 575.874 218.386 577.03 218.386H589.568C590.725 218.386 591.483 219.144 591.483 220.301V279.125C591.483 280.281 590.58 281.04 589.424 281.04H577.03C575.874 281.04 575.115 280.281 575.115 279.125L574.862 272.223C570.526 278.619 563.733 282.593 554.411 282.593C536.779 282.593 524.638 268.393 524.638 249.749M558.133 266.478C567.455 266.478 573.995 259.83 573.995 249.749C573.995 239.668 567.491 233.019 558.133 233.019C548.775 233.019 541.909 239.812 541.909 249.749C541.909 259.685 548.811 266.478 558.133 266.478Z" fill="#F15E2E"/>
<path d="M606.695 303.369V220.264C606.695 219.108 607.454 218.349 608.61 218.349H621.256C622.413 218.349 623.172 219.108 623.172 220.264L623.424 227.166C627.652 220.662 634.3 216.796 643.875 216.796C661.4 216.796 673.54 231.104 673.54 249.64C673.54 268.176 661.4 282.485 643.875 282.485C635.312 282.485 628.808 279.161 624.436 273.524V303.333C624.436 304.49 623.677 305.248 622.521 305.248H608.574C607.418 305.248 606.659 304.49 606.659 303.333M640.154 266.37C649.368 266.37 656.269 259.721 656.269 249.64C656.269 239.559 649.368 232.911 640.154 232.911C630.94 232.911 624.183 239.559 624.183 249.64C624.183 259.721 630.687 266.37 640.154 266.37Z" fill="#F15E2E"/>
<path d="M685.572 303.369V220.264C685.572 219.108 686.331 218.349 687.488 218.349H700.134C701.29 218.349 702.049 219.108 702.049 220.264L702.302 227.166C706.529 220.662 713.178 216.796 722.753 216.796C740.277 216.796 752.418 231.104 752.418 249.64C752.418 268.176 740.277 282.485 722.753 282.485C714.19 282.485 707.686 279.161 703.314 273.524V303.333C703.314 304.49 702.555 305.248 701.399 305.248H687.451C686.295 305.248 685.536 304.49 685.536 303.333M719.031 266.37C728.245 266.37 735.146 259.721 735.146 249.64C735.146 239.559 728.245 232.911 719.031 232.911C709.817 232.911 703.061 239.559 703.061 249.64C703.061 259.721 709.565 266.37 719.031 266.37Z" fill="#F15E2E"/>
<path d="M763.691 197.392C763.691 192.009 767.919 187.673 773.519 187.673C779.12 187.673 783.239 192.009 783.239 197.392C783.239 202.776 779.156 207.221 773.519 207.221C767.883 207.221 763.691 202.885 763.691 197.392ZM764.595 220.264C764.595 219.108 765.354 218.349 766.51 218.349H780.457C781.613 218.349 782.372 219.108 782.372 220.264V279.088C782.372 280.245 781.613 281.003 780.457 281.003H766.51C765.354 281.003 764.595 280.245 764.595 279.088V220.264Z" fill="#F15E2E"/>
<path d="M797.692 279.088V220.264C797.692 219.108 798.451 218.349 799.607 218.349H812.904C814.06 218.349 814.819 218.855 814.819 220.409L815.325 227.816C818.902 221.421 824.9 216.832 834.258 216.832C847.302 216.832 856.877 226.299 856.877 242.667V279.088C856.877 280.245 855.974 281.003 854.818 281.003H841.124C839.967 281.003 839.209 280.245 839.209 279.088V246.605C839.209 237.789 835.126 233.055 827.574 233.055C820.022 233.055 815.289 237.789 815.289 246.605V279.088C815.289 280.245 814.53 281.003 813.374 281.003H799.571C798.415 281.003 797.656 280.245 797.656 279.088" fill="#F15E2E"/>
<path d="M868.801 249.423C868.801 230.996 881.7 216.832 901.031 216.832C920.362 216.832 931.094 230.887 931.094 246.75C931.094 252.892 929.684 256.325 924.192 256.325H886.072C887.987 264.238 894.527 268.61 904.608 268.61C909.486 268.61 914.075 267.707 919.206 264.78C920.109 264.274 920.76 264.382 921.374 265.286L926.107 271.79C926.722 272.693 926.613 273.56 925.457 274.608C920.073 279.992 912.016 282.521 903.199 282.521C882.604 282.521 868.801 268.321 868.801 249.423ZM915.34 243.931C914.328 235.621 908.691 231.393 901.14 231.393C893.588 231.393 887.337 235.621 885.82 243.931H915.34Z" fill="#F15E2E"/>
<path d="M939.621 272.151C938.826 271.248 938.971 269.838 939.874 268.429L944.354 262.178C945.366 260.661 946.522 260.914 947.534 261.672C952.773 265.647 957.109 267.815 961.987 267.815C966.215 267.815 969.033 266.153 969.033 262.576C969.033 259.504 967.118 258.095 962.493 256.18L954.58 252.964C946.522 249.785 940.886 244.401 940.886 235.693C940.886 223.661 951.111 216.76 962.746 216.76C970.912 216.76 978.464 220.084 983.703 226.335C984.462 227.238 984.209 228.25 983.558 229.009L977.922 235.801C977.018 236.813 976.151 236.705 974.995 235.801C970.912 232.369 967.335 230.562 963.613 230.562C959.53 230.562 957.615 232.875 957.615 235.549C957.615 238.62 960.181 240.282 963.613 241.547L972.429 245.015C980.343 248.195 986.63 253.723 986.485 263.298C986.341 275.945 975.501 282.485 962.963 282.485C952.484 282.485 944.535 278.004 939.585 272.115" fill="#F15E2E"/>
<path d="M997.036 272.151C996.277 271.248 996.385 269.838 997.289 268.429L1001.77 262.178C1002.78 260.661 1003.94 260.914 1004.95 261.672C1010.19 265.647 1014.52 267.815 1019.4 267.815C1023.63 267.815 1026.45 266.153 1026.45 262.576C1026.45 259.504 1024.53 258.095 1019.94 256.18L1012.03 252.964C1003.97 249.785 998.336 244.401 998.336 235.693C998.336 223.661 1008.56 216.76 1020.2 216.76C1028.4 216.76 1035.91 220.084 1041.15 226.335C1041.91 227.238 1041.66 228.25 1041.01 229.009L1035.41 235.801C1034.51 236.813 1033.6 236.705 1032.45 235.801C1028.36 232.369 1024.79 230.562 1021.06 230.562C1016.98 230.562 1015.07 232.875 1015.07 235.549C1015.07 238.62 1017.63 240.282 1021.06 241.547L1029.88 245.015C1037.79 248.195 1044.08 253.723 1043.94 263.298C1043.79 275.945 1032.95 282.485 1020.41 282.485C1009.94 282.485 1001.99 278.004 997.036 272.115" fill="#F15E2E"/>
</g>
<defs>
<clipPath id="clip0_21_7">
<rect width="1043.87" height="395.688" fill="white" transform="translate(0.0644531)"/>
</clipPath>
</defs>
</svg>
